<svg xmlns="http://www.w3.org/2000/svg" version="1.1" xmlns:xlink="http://www.w3.org/1999/xlink" xmlns:svgjs="http://svgjs.dev/svgjs" viewBox="0 0 800 800"><defs><linearGradient x1="50%" y1="0%" x2="50%" y2="100%" id="ccchaos-grad"><stop stop-color="hsl(206, 75%, 49%)" stop-opacity="1" offset="0%"></stop><stop stop-color="hsl(331, 90%, 56%)" stop-opacity="1" offset="100%"></stop></linearGradient></defs><g stroke-width="2" stroke="url(#ccchaos-grad)" fill="none" stroke-linecap="round"><path d="M405.07 105.78C415.06 103.92 425.18 102.85 435.41 102.59 445.65 102.67 456 103.59 466.43 105.32 476.87 107.42 487.36 110.32 497.83 113.96 508.26 117.92 518.61 122.57 528.76 127.82 538.75 133.29 548.41 139.29 557.61 145.75 566.45 152.31 574.64 159.24 582.04 166.48 588.88 173.71 594.76 181.19 599.61 188.85 603.83 196.42 607.02 204.15 609.2 212.01 611.01 219.72 612.11 227.54 612.69 235.46 613.54 243.23 614.42 251.1 615.64 259.08 617.95 266.92 621.16 274.89 625.47 282.99 631.36 290.98 638.5 299.13 646.78 307.46 656.24 315.7 666.26 324.15 676.35 332.81 686.27 341.41 695.17 350.25 702.43 359.34 707.96 368.39 710.99 377.7 711.26 387.28 709.27 396.85 704.69 406.7 697.88 416.82 690.02 426.94 681.39 437.11 672.78 447.29 665.17 457.47 658.73 467.66 653.81 477.83 651 487.99 649.86 498.11 650.2 508.14 652.19 518.12 654.91 527.98 657.86 537.65 661.12 547.24 663.65 556.57 665.06 565.59 665.59 574.44 664.46 582.9 661.6 590.89 657.42 598.63 651.54 605.82 644.17 612.37 635.77 618.6 626.27 624.13 615.97 628.89 605.23 633.29 594.12 636.9 582.88 639.7 571.7 642.18 560.66 643.88 549.86 644.83 539.39 645.61 529.22 645.77 519.36 645.38 509.86 645.08 500.59 644.43 491.52 643.57 482.71 643.11 473.97 642.66 465.25 642.36 456.68 642.77 448.02 643.53 439.24 644.7 430.52 646.78 421.61 649.37 412.51 652.45 403.42 656.41 394.11 660.78 384.6 665.43 375.08 670.68 365.59 675.8 356.18 680.63 346.78 685.56 337.49 689.85 328.35 693.37 319.26 696.53 310.38 698.66 301.74 699.68 293.2 700.06 284.96 699.22 277.08 697.19 269.31 694.41 261.91 690.46 254.93 685.43 248.06 679.75 241.59 673.1 235.53 665.63 229.5 657.7 223.82 649.1 218.45 639.97 212.99 630.61 207.73 620.86 202.65 610.86 197.3 600.8 192.01 590.59 186.75 580.32 181.12 570.12 175.46 559.91 169.79 549.74 163.79 539.7 157.83 529.71 152.01 519.79 146.05 510.01 140.38 500.29 135.14 490.62 130.05 481.07 125.58 471.54 121.84 462.04 118.5 452.61 115.99 443.17 114.37 433.73 113.16 424.32 112.76 414.88 113.13 405.41 113.68 395.95 114.78 386.45 116.33 376.92 117.66 367.39 119.18 358.05 120.79 348.93 121.95 339.81 123.15 330.91 124.39 322.26 125.25 313.61 126.27 305.24 127.55 297.15 128.72 289.08 130.35 281.32 132.53 273.89 134.91 266.5 137.99 259.44 141.82 252.75 146.03 246.09 151.01 239.78 156.71 233.86 162.79 227.93 169.5 222.36 176.76 217.16 184.22 211.91 192.08 206.98 200.23 202.37 208.39 197.65 216.72 193.2 225.16 188.99 233.44 184.6 241.78 180.4 250.13 176.37 258.26 172.08 266.43 167.92 274.63 163.87 282.62 159.51 290.69 155.24 298.88 151.06 306.9 146.58 315.09 142.2 323.47 137.97 331.75 133.49 340.27 129.21 349.05 125.19 357.77 121.05 366.79 117.26 376.12 113.91 385.43 110.62 395.08 107.88 405.06 105.78" stroke-dasharray="0 8" transform="rotate(0, 400, 400)" opacity="0.85"></path><path d="M409.93 116.54C419.64 114.7 429.44 113.61 439.3 113.29 449.16 113.29 459.07 114.1 468.99 115.68 478.9 117.62 488.77 120.32 498.54 123.73 508.22 127.45 517.72 131.84 526.93 136.82 535.94 142.03 544.53 147.77 552.58 153.96 560.27 160.27 567.27 166.96 573.47 173.97 579.19 180.99 584.02 188.28 587.92 195.77 591.37 203.2 593.96 210.8 595.76 218.53 597.43 226.16 598.62 233.9 599.55 241.74 600.93 249.46 602.53 257.28 604.61 265.2 607.81 272.99 611.91 280.91 617.05 288.94 623.59 296.87 631.18 304.95 639.68 313.17 649.09 321.32 658.82 329.65 668.4 338.16 677.65 346.61 685.8 355.28 692.32 364.15 697.18 373 699.7 382.08 699.67 391.39 697.6 400.68 693.17 410.22 686.7 420 679.26 429.78 671.09 439.57 662.86 449.34 655.48 459.11 649.07 468.86 643.98 478.55 640.76 488.22 639.07 497.82 638.75 507.28 640.02 516.71 642.09 525.96 644.52 534.99 647.45 543.93 649.9 552.6 651.52 560.91 652.53 569.07 652.16 576.82 650.28 584.08 647.27 591.11 642.69 597.6 636.67 603.46 629.62 609.04 621.41 613.95 612.28 618.15 602.58 622.04 592.33 625.21 581.75 627.64 571.07 629.81 560.34 631.3 549.69 632.13 539.22 632.85 528.94 633.04 518.9 632.77 509.13 632.62 499.58 632.2 490.24 631.62 481.12 631.43 472.13 631.29 463.23 631.29 454.47 631.96 445.72 632.95 436.94 634.3 428.22 636.5 419.42 639.13 410.52 642.18 401.64 646.04 392.63 650.24 383.5 654.67 374.38 659.64 365.36 664.49 356.47 669.05 347.59 673.72 338.87 677.81 330.35 681.19 321.87 684.27 313.62 686.41 305.65 687.55 297.75 688.12 290.15 687.57 282.9 685.93 275.73 683.61 268.91 680.2 262.47 675.77 256.08 670.73 250.03 664.77 244.33 657.99 238.6 650.76 233.14 642.85 227.92 634.39 222.54 625.67 217.31 616.53 212.19 607.09 206.77 597.55 201.38 587.81 195.98 577.95 190.23 568.11 184.46 558.23 178.69 548.34 172.64 538.54 166.67 528.76 160.87 519.03 154.99 509.41 149.45 499.84 144.36 490.32 139.47 480.9 135.22 471.51 131.7 462.16 128.59 452.88 126.3 443.62 124.86 434.37 123.83 425.16 123.59 415.95 124.08 406.74 124.74 397.54 125.91 388.34 127.51 379.14 128.9 369.95 130.46 360.97 132.09 352.23 133.29 343.5 134.5 335 135.73 326.76 136.57 318.53 137.54 310.56 138.72 302.9 139.76 295.24 141.2 287.89 143.12 280.86 145.21 273.85 147.94 267.17 151.36 260.83 155.13 254.5 159.65 248.5 164.87 242.86 170.48 237.19 176.73 231.85 183.55 226.84 190.63 221.76 198.15 216.98 206.02 212.47 213.97 207.84 222.15 203.45 230.49 199.27 238.75 194.9 247.1 190.7 255.49 186.65 263.72 182.35 271.99 178.16 280.29 174.07 288.41 169.7 296.59 165.41 304.85 161.22 312.96 156.76 321.2 152.4 329.58 148.19 337.86 143.77 346.33 139.54 355.02 135.58 363.64 131.52 372.52 127.81 381.67 124.53 390.79 121.3 400.21 118.61 409.92 116.54" stroke-dasharray="9 2" transform="rotate(4.04, 400, 400)" opacity="0.57"></path><path d="M413.69 127.3C423.1 125.48 432.53 124.38 441.95 124 451.36 123.94 460.76 124.63 470.08 126.07 479.37 127.84 488.54 130.33 497.52 133.52 506.39 137 514.99 141.13 523.22 145.84 531.24 150.77 538.78 156.23 545.73 162.13 552.35 168.17 558.3 174.6 563.47 181.36 568.27 188.15 572.28 195.22 575.49 202.5 578.43 209.75 580.7 217.19 582.4 224.77 584.16 232.27 585.66 239.9 587.1 247.63 589.13 255.26 591.51 263 594.45 270.83 598.49 278.55 603.38 286.39 609.22 294.33 616.25 302.18 624.15 310.17 632.73 318.28 641.96 326.31 651.3 334.51 660.32 342.86 668.88 351.16 676.28 359.65 682.07 368.31 686.3 376.94 688.35 385.78 688.06 394.8 685.93 403.82 681.65 413.05 675.51 422.47 668.5 431.89 660.77 441.28 652.92 450.63 645.79 459.98 639.45 469.26 634.24 478.45 630.69 487.63 628.49 496.69 627.57 505.58 628.15 514.43 629.56 523.08 631.44 531.47 633.94 539.78 636.19 547.77 637.85 555.41 639.16 562.89 639.34 569.96 638.26 576.54 636.25 582.91 632.82 588.74 628.05 593.98 622.31 598.98 615.4 603.34 607.51 607.05 598.97 610.5 589.75 613.29 580.05 615.42 570.1 617.36 559.93 618.7 549.7 619.46 539.5 620.17 529.37 620.43 519.39 620.3 509.57 620.33 499.93 620.14 490.47 619.83 481.19 619.92 472.05 620.06 463.05 620.34 454.16 621.25 445.35 622.44 436.58 623.96 427.88 626.24 419.17 628.9 410.45 631.92 401.75 635.66 393 639.69 384.23 643.91 375.45 648.62 366.85 653.19 358.43 657.49 350.03 661.91 341.82 665.79 333.86 669.02 325.92 672 318.24 674.14 310.85 675.36 303.49 676.1 296.44 675.81 289.73 674.51 283.04 672.62 276.68 669.7 270.65 665.83 264.61 661.4 258.87 656.08 253.41 649.98 247.85 643.43 242.5 636.22 237.33 628.44 231.95 620.37 226.67 611.87 221.45 603.02 215.93 594.04 210.4 584.82 204.86 575.44 199 566.04 193.13 556.54 187.29 547.01 181.22 537.52 175.28 528.02 169.54 518.55 163.79 509.16 158.41 499.8 153.52 490.49 148.86 481.25 144.85 472.05 141.57 462.9 138.7 453.81 136.64 444.74 135.4 435.72 134.55 426.73 134.45 417.76 135.06 408.82 135.8 399.89 137.05 390.99 138.69 382.12 140.13 373.25 141.73 364.62 143.38 356.25 144.61 347.87 145.84 339.74 147.08 331.89 147.92 324.04 148.85 316.46 149.96 309.18 150.89 301.89 152.16 294.91 153.87 288.24 155.68 281.57 158.08 275.21 161.11 269.19 164.45 263.14 168.5 257.41 173.23 252.01 178.33 246.56 184.08 241.41 190.41 236.55 197.03 231.62 204.14 226.94 211.64 222.51 219.28 217.95 227.21 213.59 235.35 209.43 243.47 205.07 251.74 200.86 260.08 196.79 268.33 192.47 276.63 188.26 284.97 184.15 293.17 179.77 301.42 175.48 309.73 171.29 317.92 166.84 326.2 162.52 334.58 158.35 342.87 153.99 351.31 149.83 359.91 145.94 368.46 141.97 377.21 138.34 386.17 135.13 395.11 131.98 404.28 129.34 413.68 127.31" stroke-dasharray="2 10" transform="rotate(8.08, 400, 400)" opacity="0.81"></path><path d="M415.95 138.07C425.01 136.26 434.02 135.15 442.95 134.73 451.87 134.6 460.69 135.18 469.36 136.48 477.99 138.08 486.41 140.38 494.57 143.34 502.61 146.58 510.32 150.44 517.59 154.87 524.67 159.52 531.24 164.68 537.22 170.29 542.92 176.05 547.99 182.19 552.36 188.67 556.46 195.21 559.9 202.02 562.7 209.07 565.38 216.12 567.58 223.35 569.41 230.75 571.45 238.08 573.42 245.56 575.49 253.15 578.22 260.66 581.39 268.27 585.16 275.99 589.95 283.61 595.52 291.34 601.91 299.16 609.3 306.91 617.35 314.77 625.86 322.75 634.81 330.66 643.68 338.71 652.08 346.88 659.93 355.02 666.59 363.3 671.69 371.74 675.33 380.15 676.95 388.72 676.43 397.46 674.26 406.18 670.14 415.08 664.33 424.12 657.73 433.17 650.43 442.17 642.97 451.08 636.1 459.98 629.88 468.79 624.59 477.48 620.77 486.14 618.13 494.66 616.65 502.98 616.59 511.25 617.34 519.3 618.64 527.07 620.64 534.75 622.58 542.1 624.15 549.09 625.58 555.93 626.13 562.35 625.64 568.3 624.45 574.06 622.01 579.3 618.34 583.98 613.83 588.46 608.17 592.35 601.51 595.63 594.2 598.71 586.11 601.2 577.43 603.1 568.4 604.87 559.01 606.11 549.42 606.85 539.74 607.59 530.01 607.95 520.31 607.98 510.69 608.21 501.16 608.25 491.78 608.2 482.51 608.56 473.37 608.97 464.37 609.5 455.46 610.63 446.66 612.01 437.95 613.67 429.3 616.01 420.71 618.68 412.17 621.66 403.64 625.28 395.15 629.14 386.69 633.14 378.23 637.6 369.99 641.91 362 645.95 354 650.11 346.25 653.78 338.77 656.86 331.28 659.74 324.07 661.85 317.16 663.14 310.25 664 303.64 663.94 297.34 662.94 291.02 661.43 284.99 658.97 279.25 655.62 273.44 651.75 267.88 647.05 262.54 641.59 257.05 635.71 251.72 629.17 246.51 622.07 241.07 614.67 235.69 606.82 230.33 598.59 224.68 590.21 219.02 581.55 213.35 572.69 207.4 563.78 201.46 554.73 195.59 545.61 189.55 536.5 183.68 527.35 178.06 518.21 172.48 509.11 167.31 500.02 162.64 490.97 158.25 481.98 154.5 473.02 151.48 464.11 148.87 455.25 147.03 446.42 145.99 437.64 145.32 428.9 145.36 420.19 146.06 411.53 146.89 402.88 148.2 394.28 149.88 385.73 151.36 377.19 152.98 368.89 154.66 360.87 155.92 352.83 157.18 345.06 158.43 337.56 159.28 330.06 160.2 322.83 161.25 315.9 162.1 308.95 163.24 302.3 164.75 295.95 166.32 289.58 168.42 283.51 171.08 277.75 174.01 271.96 177.6 266.45 181.83 261.24 186.41 255.98 191.63 250.98 197.44 246.25 203.55 241.43 210.17 236.83 217.22 232.46 224.45 227.95 232.03 223.61 239.86 219.45 247.74 215.1 255.81 210.88 264 206.78 272.15 202.46 280.39 198.23 288.68 194.1 296.89 189.72 305.14 185.43 313.45 181.25 321.66 176.84 329.94 172.56 338.29 168.44 346.57 164.15 354.95 160.07 363.45 156.26 371.9 152.38 380.5 148.84 389.25 145.71 397.98 142.64 406.88 140.07 415.94 138.07" stroke-dasharray="8 1" transform="rotate(12.12, 400, 400)" opacity="0.23"></path><path d="M416.45 148.83C425.12 147.05 433.68 145.93 442.08 145.47 450.48 145.27 458.7 145.76 466.69 146.91 474.64 148.35 482.33 150.46 489.69 153.19 496.94 156.19 503.8 159.79 510.21 163.93 516.46 168.29 522.19 173.15 527.37 178.45 532.34 183.91 536.73 189.75 540.53 195.92 544.18 202.18 547.29 208.72 549.93 215.51 552.58 222.3 554.92 229.31 557.07 236.48 559.55 243.62 562.09 250.91 564.85 258.31 568.3 265.66 572.22 273.12 576.73 280.67 582.15 288.16 588.27 295.75 595.05 303.43 602.63 311.04 610.69 318.75 619.01 326.56 627.58 334.33 635.91 342.2 643.66 350.18 650.79 358.12 656.74 366.2 661.19 374.38 664.27 382.55 665.5 390.86 664.77 399.28 662.59 407.7 658.64 416.25 653.14 424.92 646.94 433.58 640.08 442.16 633 450.62 626.42 459.08 620.33 467.41 615.02 475.59 610.98 483.74 607.98 491.71 606 499.47 605.34 507.18 605.47 514.64 606.17 521.8 607.63 528.88 609.18 535.63 610.53 542 612.29 551.15 611.18 567 607.64 573.55 604.21 577.57 599.71 581.05 594.24 583.98 588.13 586.77 581.21 589.02 573.63 590.75 565.64 592.4 557.19 593.59 548.41 594.35 539.46 595.15 530.34 595.63 521.14 595.85 511.93 596.27 502.74 596.55 493.61 596.76 484.55 597.36 475.57 598.02 466.71 598.79 457.93 600.11 449.24 601.64 440.67 603.42 432.14 605.81 423.7 608.48 415.36 611.4 407.03 614.9 398.78 618.58 390.61 622.38 382.44 626.58 374.54 630.63 366.9 634.43 359.26 638.34 351.88 641.8 344.79 644.72 337.68 647.49 330.85 649.56 324.3 650.88 317.73 651.84 311.44 651.97 305.43 651.24 299.36 650.06 293.54 648.02 287.97 645.14 282.29 641.8 276.8 637.68 271.48 632.83 265.99 627.59 260.6 621.71 255.3 615.27 249.75 608.54 244.24 601.34 238.74 593.75 232.96 585.99 227.18 577.92 221.41 569.62 215.41 561.25 209.46 552.7 203.61 544.04 197.65 535.37 191.9 526.63 186.45 517.87 181.09 509.12 176.16 500.37 171.76 491.64 167.65 482.94 164.18 474.27 161.43 465.65 159.08 457.05 157.48 448.5 156.63 440 156.13 431.53 156.3 423.1 157.09 414.74 158 406.39 159.35 398.09 161.06 389.86 162.57 381.63 164.22 373.67 165.91 365.97 167.21 358.26 168.5 350.82 169.77 343.65 170.64 336.48 171.57 329.57 172.59 322.95 173.38 316.31 174.42 309.95 175.77 303.87 177.13 297.77 178.95 291.95 181.28 286.42 183.82 280.84 186.97 275.53 190.72 270.48 194.78 265.37 199.46 260.5 204.71 255.86 210.26 251.13 216.34 246.59 222.88 242.26 229.63 237.78 236.75 233.46 244.17 229.3 251.71 224.95 259.47 220.72 267.39 216.6 275.33 212.27 283.39 208.04 291.53 203.9 299.63 199.53 307.79 195.26 316 191.11 324.16 186.75 332.37 182.52 340.62 178.46 348.83 174.26 357.11 170.27 365.46 166.55 373.78 162.77 382.19 159.33 390.68 156.28 399.17 153.3 407.76 150.79 416.44 148.83" stroke-dasharray="6 8" transform="rotate(16.16, 400, 400)" opacity="0.72"></path><path d="M415.14 159.59C423.39 157.85 431.47 156.72 439.33 156.22 447.18 155.96 454.8 156.35 462.14 157.37 469.44 158.66 476.42 160.57 483.05 163.08 489.58 165.84 495.71 169.17 501.39 173.03 506.94 177.1 512.01 181.65 516.58 186.63 521.02 191.77 524.96 197.29 528.43 203.15 531.84 209.1 534.86 215.34 537.55 221.83 540.37 228.36 543.02 235.09 545.62 242.01 548.62 248.91 551.79 255.97 555.24 263.16 559.36 270.3 563.96 277.57 569.1 284.93 575.03 292.24 581.53 299.65 588.55 307.14 596.19 314.58 604.11 322.12 612.14 329.74 620.24 337.32 627.97 344.99 635.05 352.75 641.47 360.48 646.73 368.31 650.55 376.24 653.13 384.15 654 392.16 653.11 400.26 650.92 408.35 647.14 416.55 641.96 424.82 636.15 433.09 629.7 441.24 623.02 449.25 616.72 457.25 610.81 465.1 605.52 472.77 601.33 480.41 598.02 487.86 595.61 495.06 594.4 502.22 593.94 509.11 594.05 515.7 595.5 525.3 598.68 542.52 599.22 550.01 598.54 556.85 591.81 567.95 585.67 572.17 580.71 574.72 574.93 576.79 568.47 578.4 561.58 579.98 554.15 581.17 546.31 581.98 538.23 582.88 529.88 583.5 521.36 583.9 512.76 584.52 504.08 585.03 495.4 585.49 486.72 586.32 478.08 587.2 469.51 588.19 460.98 589.68 452.53 591.34 444.18 593.22 435.87 595.64 427.66 598.29 419.55 601.15 411.46 604.52 403.46 608.03 395.57 611.62 387.68 615.57 380.07 619.37 372.74 622.92 365.4 626.59 358.33 629.84 351.54 632.6 344.73 635.25 338.18 637.26 331.9 638.59 325.57 639.63 319.5 639.91 313.66 639.42 307.74 638.53 302.04 636.85 296.52 634.41 290.88 631.56 285.39 627.97 280.01 623.7 274.46 619.06 268.97 613.81 263.54 608.01 257.88 601.94 252.24 595.39 246.6 588.45 240.73 581.32 234.87 573.86 229.05 566.15 223.05 558.34 217.13 550.34 211.36 542.19 205.54 534.01 199.98 525.72 194.74 517.39 189.64 509.05 184.99 500.69 180.88 492.32 177.08 483.98 173.92 475.64 171.45 467.34 169.36 459.06 167.98 450.82 167.33 442.63 166.99 434.46 167.28 426.34 168.16 418.29 169.13 410.24 170.52 402.25 172.25 394.35 173.78 386.44 175.44 378.8 177.15 371.41 178.48 364.03 179.81 356.9 181.1 350.04 182.01 343.16 182.95 336.55 183.96 330.21 184.72 323.85 185.69 317.75 186.91 311.92 188.89 303.25 195.27 287.14 199.92 279.65 203.48 274.66 207.62 269.89 212.31 265.34 217.29 260.67 222.79 256.19 228.76 251.88 234.96 247.43 241.55 243.12 248.48 238.95 255.56 234.61 262.9 230.37 270.45 226.25 278.06 221.92 285.82 217.69 293.7 213.55 301.57 209.22 309.53 204.98 317.55 200.86 325.54 196.56 333.59 192.41 341.67 188.42 349.72 184.32 357.82 180.42 365.95 176.8 374.07 173.13 382.24 169.79 390.43 166.84 398.63 163.95 406.87 161.51 415.12 159.59" stroke-dasharray="7 2" transform="rotate(20.200000000000003, 400, 400)" opacity="0.98"></path><path d="M412.16 170.35C419.97 168.65 427.55 167.53 434.88 166.99 442.2 166.68 449.24 166.97 455.97 167.86 462.67 168.99 469.03 170.72 475.02 173.01 480.94 175.54 486.47 178.6 491.58 182.17 496.6 185.94 501.19 190.18 505.36 194.84 509.46 199.65 513.17 204.84 516.52 210.36 519.9 215.99 523.01 221.91 525.92 228.08 529.04 234.3 532.12 240.74 535.24 247.36 538.8 253.99 542.59 260.79 546.69 267.71 551.41 274.62 556.57 281.65 562.2 288.78 568.49 295.88 575.23 303.07 582.33 310.34 589.87 317.57 597.55 324.9 605.17 332.29 612.73 339.65 619.84 347.09 626.24 354.6 631.95 362.09 636.54 369.66 639.79 377.29 641.9 384.92 642.46 392.62 641.42 400.38 639.25 408.14 635.64 415.96 630.78 423.82 625.34 431.69 619.31 439.41 613.01 446.97 607.02 454.51 601.31 461.89 596.09 469.06 591.79 476.2 588.25 483.13 585.48 489.81 583.78 496.44 582.77 502.79 582.32 508.84 582.95 517.65 585.17 533.34 585.72 540.13 585.48 546.34 580.68 556.42 575.91 560.28 569.61 563.62 552.86 568.3 542.82 569.8 535.71 570.8 528.24 571.58 520.53 572.17 512.68 572.98 504.67 573.71 496.58 574.4 488.45 575.44 480.29 576.53 472.15 577.7 464.01 579.33 455.92 581.11 447.9 583.06 439.9 585.5 431.98 588.12 424.16 590.89 416.34 594.13 408.62 597.47 401.01 600.86 393.4 604.57 386.06 608.12 379 611.43 371.92 614.86 365.11 617.91 358.55 620.51 351.96 623.02 345.62 624.96 339.51 626.29 333.35 627.37 327.39 627.78 321.64 627.48 315.8 626.85 310.13 625.5 304.6 623.44 298.94 621.03 293.39 617.93 287.92 614.2 282.28 610.14 276.69 605.49 271.13 600.31 265.36 594.86 259.62 588.96 253.89 582.65 247.97 576.15 242.08 569.32 236.26 562.21 230.33 555 224.52 547.56 218.89 539.95 213.27 532.29 207.94 524.51 202.97 516.65 198.16 508.77 193.83 500.83 190.05 492.88 186.57 484.93 183.72 476.97 181.53 469.04 179.71 461.12 178.56 453.22 178.09 445.37 177.9 437.53 178.3 429.74 179.25 422.01 180.28 414.29 181.7 406.62 183.43 399.04 184.98 391.46 186.65 384.13 188.37 377.05 189.73 369.97 191.09 363.14 192.42 356.56 193.37 349.97 194.34 343.63 195.35 337.55 196.57 328.5 199.9 311.6 202.37 303.71 205.43 295.97 214.36 281.44 220.31 274.6 224.71 269.99 229.62 265.55 234.98 261.27 240.58 256.84 246.6 252.55 252.96 248.38 259.5 244.04 266.34 239.81 273.4 235.69 280.58 231.38 287.93 227.17 295.42 223.05 302.96 218.76 310.6 214.57 318.31 210.5 326.03 206.29 333.81 202.21 341.61 198.31 349.42 194.32 357.25 190.53 365.09 187.01 372.94 183.47 380.79 180.24 388.64 177.38 396.49 174.59 404.33 172.23 412.15 170.36" stroke-dasharray="7 8" transform="rotate(24.24, 400, 400)" opacity="0.27"></path><path d="M407.84 181.12C415.18 179.45 422.28 178.34 429.1 177.77 435.9 177.41 442.42 177.62 448.62 178.38 454.78 179.37 460.62 180.91 466.1 182.99 474.07 186.69 488.11 196.81 494.2 203.09 498.16 207.57 501.82 212.42 505.21 217.59 508.72 222.88 512.07 228.45 515.31 234.28 518.83 240.17 522.38 246.29 526.05 252.59 530.15 258.92 534.5 265.41 539.16 272.04 544.38 278.67 549.97 285.43 555.94 292.28 562.43 299.12 569.24 306.06 576.28 313.07 583.6 320.06 590.92 327.13 598.06 334.26 605.04 341.37 611.49 348.55 617.2 355.78 622.24 363 626.2 370.28 628.9 377.6 630.59 384.92 630.88 392.29 629.72 399.69 627.58 407.09 624.16 414.53 619.59 421.98 614.53 429.43 608.9 436.72 602.99 443.82 597.31 450.92 591.82 457.82 586.7 464.5 582.37 471.17 578.64 477.6 575.58 483.77 572.71 492.83 570.8 509.38 571.06 516.78 572.02 529.63 568.74 544.79 565.07 548.38 560.11 551.54 546.33 556.19 537.78 557.82 531.65 558.94 525.12 559.88 518.28 560.65 511.27 561.66 504.04 562.59 496.65 563.49 489.19 564.71 481.63 565.98 474.03 567.32 466.41 569.07 458.78 570.94 451.18 572.94 443.59 575.38 436.03 577.95 428.55 580.65 421.07 583.74 413.67 586.91 406.34 590.09 399.02 593.57 391.95 596.88 385.13 599.96 378.29 603.16 371.68 606 365.31 608.43 358.9 610.8 352.7 612.66 346.7 613.97 337.7 615.33 320.38 614.49 311.96 612.25 306.25 610.24 300.62 607.59 295.06 604.35 289.33 600.82 283.64 596.73 277.99 592.13 272.16 587.3 266.36 582.01 260.59 576.32 254.69 570.45 248.84 564.24 243.1 557.74 237.3 551.13 231.66 544.27 226.24 537.23 220.88 530.13 215.84 522.87 211.17 515.52 206.71 508.13 202.72 500.66 199.28 493.16 196.14 485.65 193.6 478.11 191.7 470.57 190.14 463.04 189.21 455.52 188.91 448.04 188.87 440.56 189.37 433.12 190.38 425.73 191.45 418.35 192.88 411.02 194.61 403.77 196.17 396.51 197.85 389.5 199.57 382.72 200.96 375.94 202.35 369.4 203.71 363.09 204.71 356.77 205.72 350.69 206.76 344.84 207.98 336.13 211.06 319.8 213.25 312.14 215.88 304.6 223.58 290.36 228.76 283.61 232.6 279.06 236.91 274.66 241.67 270.39 246.66 266 252.06 261.72 257.81 257.56 263.75 253.25 270 249.04 276.51 244.92 283.15 240.65 290 236.47 297.01 232.39 304.09 228.16 311.31 224.03 318.61 220.04 325.94 215.91 333.35 211.94 340.78 208.14 348.24 204.26 355.72 200.6 363.2 197.19 370.68 193.77 378.16 190.66 385.61 187.9 393.07 185.21 400.48 182.94 407.83 181.12" stroke-dasharray="11 10" transform="rotate(28.28, 400, 400)" opacity="0.08"></path><path d="M402.66 191.88C409.53 190.26 416.15 189.15 422.5 188.56 431.85 188.22 449.05 190.46 456.86 193.01 464.31 196.36 477.66 205.61 483.63 211.41 487.58 215.55 491.33 220.04 494.91 224.86 498.64 229.79 502.31 235 505.95 240.47 509.88 246.01 513.91 251.77 518.08 257.73 522.66 263.72 527.49 269.88 532.6 276.19 538.16 282.5 544.04 288.95 550.19 295.49 556.73 302.04 563.47 308.68 570.31 315.39 577.29 322.1 584.16 328.88 590.75 335.71 597.11 342.54 602.9 349.42 607.93 356.34 612.32 363.26 615.69 370.22 617.9 377.21 619.21 384.19 619.25 391.21 618.01 398.24 615.91 405.27 612.67 412.31 608.41 419.34 603.7 426.38 598.46 433.23 592.94 439.88 587.58 446.53 582.33 452.98 577.36 459.2 573.03 465.4 569.19 471.36 565.9 477.05 562.47 485.42 559.1 500.62 558.65 507.38 558.85 519.16 556.21 533.16 553.37 536.55 549.5 539.6 538.3 544.3 531.14 546.09 525.96 547.33 520.35 548.42 514.39 549.38 508.26 550.56 501.85 551.67 495.23 552.76 488.51 554.15 481.63 555.58 474.66 557.06 467.64 558.9 460.56 560.83 453.46 562.86 446.35 565.28 439.23 567.8 432.14 570.4 425.05 573.35 417.99 576.34 410.98 579.33 403.97 582.58 397.16 585.65 390.57 588.51 383.96 591.48 377.55 594.11 371.33 596.38 365.07 598.61 358.99 600.37 353.06 601.64 344.16 603.04 326.85 602.68 318.37 600.86 312.62 599.2 306.93 596.95 301.3 594.16 295.53 591.12 289.79 587.55 284.08 583.51 278.26 579.25 272.47 574.54 266.74 569.46 260.92 564.2 255.2 558.6 249.62 552.7 244.02 546.69 238.62 540.43 233.48 533.96 228.43 527.43 223.72 520.72 219.41 513.89 215.31 507.02 211.69 500.06 208.6 493.03 205.81 485.99 203.59 478.89 201.97 471.79 200.66 464.68 199.94 457.57 199.8 450.47 199.89 443.38 200.48 436.31 201.53 429.28 202.64 422.26 204.08 415.28 205.8 408.36 207.35 401.44 209.02 394.74 210.75 388.26 212.16 381.78 213.58 375.51 214.97 369.47 216.55 360.49 219.4 343.55 220.88 335.58 222.34 327.74 226.59 312.94 229.61 305.93 233.21 298.96 242.87 285.63 248.91 279.22 253.28 274.86 258.05 270.61 263.18 266.48 268.49 262.2 274.11 258.02 280.01 253.94 286.05 249.72 292.31 245.59 298.76 241.57 305.31 237.42 312 233.37 318.8 229.47 325.66 225.45 332.6 221.58 339.58 217.9 346.59 214.15 353.64 210.62 360.68 207.34 367.74 204.06 374.79 201.07 381.79 198.42 388.81 195.84 395.77 193.64 402.65 191.88" stroke-dasharray="0 10" transform="rotate(32.32, 400, 400)" opacity="0.44"></path><path d="M397.18 202.64C403.59 201.07 409.76 199.98 415.68 199.37 424.41 198.96 440.52 200.83 447.89 203.1 455 206.09 468.04 214.5 474.07 219.8 478.12 223.6 482.04 227.74 485.88 232.19 489.89 236.76 493.9 241.6 497.95 246.69 502.27 251.86 506.72 257.25 511.32 262.83 516.29 268.46 521.46 274.27 526.87 280.21 532.65 286.18 538.64 292.28 544.82 298.49 551.27 304.7 557.8 311.01 564.31 317.39 570.87 323.78 577.22 330.23 583.22 336.74 588.93 343.24 594.05 349.79 598.43 356.38 602.2 362.96 605.03 369.57 606.79 376.2 607.76 382.83 607.59 389.48 606.29 396.12 604.25 402.76 601.2 409.4 597.23 416.01 592.87 422.62 588.01 429.04 582.86 435.26 577.84 441.47 572.85 447.47 568.05 453.24 563.78 459 559.89 464.51 556.44 469.77 552.55 477.49 547.86 491.47 546.71 497.68 545.96 508.54 543.32 521.6 541.04 524.85 533.45 530.25 516.27 536.6 508.78 538.34 503.5 539.68 497.91 540.96 492.06 542.22 486.12 543.75 479.96 545.3 473.65 546.89 467.3 548.8 460.82 550.78 454.26 552.82 447.69 555.2 441.06 557.65 434.41 560.15 427.75 562.95 421.08 565.77 414.4 568.57 407.73 571.59 401.21 574.44 394.85 577.08 388.49 579.82 382.27 582.26 376.19 584.36 370.09 586.43 364.12 588.1 358.27 589.32 349.47 590.72 332.22 590.73 323.71 589.28 317.96 587.93 312.26 586.04 306.6 583.66 300.85 581.05 295.13 577.97 289.46 574.43 283.7 570.7 278.01 566.56 272.4 562.04 266.76 557.37 261.24 552.36 255.89 547.05 250.57 541.63 245.48 535.96 240.67 530.07 235.99 524.11 231.65 517.96 227.72 511.68 224.02 505.34 220.77 498.9 218.04 492.36 215.59 485.81 213.69 479.2 212.34 472.54 211.27 465.88 210.75 459.2 210.76 452.51 210.96 445.83 211.63 439.15 212.72 432.5 213.84 425.85 215.28 419.23 216.98 412.65 218.53 406.07 220.19 399.69 221.9 393.51 223.33 387.33 224.77 381.34 226.19 375.55 227.85 366.94 230.83 350.64 232.32 342.93 233.71 335.34 237.53 320.91 240.16 314.05 243.25 307.21 251.54 294.06 256.77 287.71 260.55 283.41 264.71 279.21 269.22 275.11 273.88 270.89 278.87 266.76 284.13 262.74 289.53 258.59 295.17 254.53 301.01 250.59 306.95 246.53 313.06 242.59 319.29 238.79 325.59 234.89 331.99 231.16 338.45 227.6 344.95 224 351.5 220.6 358.05 217.46 364.63 214.31 371.2 211.45 377.73 208.92 384.27 206.45 390.76 204.34 397.17 202.64" stroke-dasharray="10 5" transform="rotate(36.36, 400, 400)" opacity="0.38"></path><path d="M392.02 213.4C400.85 211.35 417.45 209.71 425.18 210.13 435.35 211.49 444.67 214.63 453.22 219.37 461.98 224.73 470.27 231.56 478.33 239.61 487.1 248.1 496.15 257.62 505.69 267.95 516.39 278.49 527.8 289.69 539.69 301.33 552.22 313.05 564.42 325.13 575.41 337.41 585.15 349.72 592.16 362.2 595.57 374.7 596.24 380.95 595.9 387.21 594.56 393.45 592.59 399.7 589.73 405.92 586.04 412.11 582.02 418.29 577.54 424.29 572.76 430.08 568.08 435.86 563.37 441.44 558.77 446.78 550.94 457.44 544.43 467.15 539.42 475.79 536.7 484.33 534.87 491.78 533.34 498.05 531.94 506.8 522.67 519.18 513.46 523.42 506.11 526.54 497.21 529.3 487.09 531.86 476.61 535.4 465.24 539.04 453.3 542.82 447.3 545.15 441.19 547.51 435 549.9 428.81 552.56 422.55 555.2 416.24 557.81 409.93 560.61 403.73 563.24 397.63 565.66 391.52 568.19 385.52 570.43 379.61 572.36 367.75 576.18 356.18 578.39 344.92 578.88 333.44 578.77 322.12 576.73 311 572.86 299.62 568.25 288.45 561.91 277.68 554.09 266.93 545.71 256.88 536.08 247.88 525.52 239.5 514.66 232.63 503.08 227.63 491.07 223.66 478.95 221.7 466.53 221.79 454.02 222.09 447.76 222.82 441.49 223.93 435.23 225.07 428.97 226.49 422.71 228.16 416.49 229.69 410.26 231.33 404.21 233.03 398.33 234.47 392.45 235.93 386.74 237.38 381.2 239.39 370.1 241.48 359.64 243.76 349.85 245.36 339.91 247.71 330.54 251 321.73 254.4 312.66 259.16 304.03 265.27 295.86 271.9 287.31 279.91 279.1 289.05 271.3 298.68 263.1 309.24 255.28 320.43 248 331.89 240.44 343.78 233.54 355.81 227.54 361.87 224.54 367.93 221.82 373.97 219.4 380.02 217.05 386.05 215.04 392.01 213.41" stroke-dasharray="6 4" transform="rotate(40.400000000000006, 400, 400)" opacity="0.25"></path><path d="M387.73 224.17C398.79 221.37 409.19 220.27 418.89 220.79 428.61 221.9 437.73 224.64 446.32 228.87 455.16 233.66 463.77 239.83 472.32 247.15 481.52 254.88 491.06 263.61 501.02 273.13 511.87 282.87 523.18 293.27 534.65 304.11 546.4 315.05 557.54 326.36 567.29 337.86 575.76 349.4 581.64 361.11 584.25 372.81 584.48 384.54 581.27 396.25 574.86 407.77 567.29 419.29 558.48 430.05 549.51 439.96 541.85 449.82 535.17 458.78 529.69 466.76 526.2 474.67 523.55 481.58 521.31 487.45 519.18 495.75 510.7 508 502.9 512.52 496.76 515.85 489.19 518.86 480.4 521.67 471.31 525.35 461.23 529.08 450.44 532.84 439.56 537.61 428.12 542.41 416.29 547.04 404.46 552.36 392.82 556.89 381.44 560.4 370.02 563.93 358.76 566.02 347.71 566.58 336.52 566.68 325.45 565.06 314.6 561.79 303.63 557.91 292.92 552.45 282.71 545.6 272.65 538.27 263.37 529.74 255.21 520.27 247.69 510.52 241.65 500.03 237.38 489.05 234.04 477.96 232.54 466.5 232.89 454.87 233.77 443.22 236 431.46 239.35 419.73 242.18 408.01 245.32 396.85 248.51 386.31 250.64 375.72 252.84 365.69 255.19 356.24 256.83 346.65 259.06 337.55 262.06 328.95 265.02 320.12 269.13 311.67 274.41 303.64 280.05 295.29 286.94 287.26 294.91 279.64 303.27 271.69 312.57 264.13 322.55 257.11 332.78 249.88 343.49 243.3 354.45 237.59 365.5 231.94 376.66 227.38 387.72 224.17" stroke-dasharray="3 8" transform="rotate(44.44, 400, 400)" opacity="0.86"></path><path d="M384.79 234.93C395.05 232.25 404.84 231.12 414.14 231.48 423.49 232.35 432.47 234.73 441.13 238.47 450.04 242.71 458.9 248.22 467.81 254.82 477.27 261.8 487.04 269.73 497.13 278.42 507.83 287.34 518.75 296.9 529.56 306.9 540.36 317.02 550.34 327.51 558.84 338.19 566.09 348.92 570.92 359.81 572.83 370.69 572.72 381.59 569.6 392.47 563.68 403.15 556.76 413.83 548.65 423.79 540.25 432.93 532.86 442.05 526.13 450.33 520.33 457.71 516.22 465.05 512.84 471.51 509.91 477.04 506.92 484.97 498.49 497.18 491.63 501.95 486.41 505.44 479.9 508.65 472.25 511.66 464.37 515.43 455.48 519.18 445.78 522.9 436 527.47 425.54 531.99 414.55 536.28 403.55 541.16 392.57 545.28 381.7 548.47 370.82 551.7 360 553.66 349.32 554.26 338.58 554.51 327.95 553.23 317.56 550.49 307.17 547.25 297.11 542.57 287.62 536.62 278.39 530.24 269.99 522.74 262.72 514.32 256.09 505.65 250.88 496.22 247.31 486.25 244.57 476.18 243.48 465.69 244.06 454.95 245.06 444.2 247.29 433.26 250.53 422.27 253.31 411.28 256.41 400.76 259.6 390.75 261.83 380.7 264.14 371.11 266.57 362.02 268.3 352.82 270.49 344.02 273.3 335.66 275.94 327.09 279.54 318.87 284.13 311.04 288.93 302.93 294.85 295.15 301.75 287.76 308.95 280.1 317.07 272.84 325.88 266.12 334.89 259.25 344.46 253.01 354.36 247.61 364.34 242.29 374.54 237.98 384.79 234.93" stroke-dasharray="3 9" transform="rotate(48.48, 400, 400)" opacity="0.78"></path><path d="M383.53 245.69C393.02 243.13 402.26 241.99 411.2 242.21 420.2 242.87 429.02 244.9 437.7 248.17 446.6 251.88 455.57 256.77 464.63 262.66 474.12 268.89 483.86 276.03 493.77 283.89 504.05 291.97 514.33 300.67 524.27 309.8 534 319.07 542.78 328.69 550.05 338.52 556.14 348.4 560.03 358.44 561.33 368.48 560.93 378.54 557.93 388.57 552.49 398.42 546.21 408.27 538.8 417.44 530.99 425.87 523.94 434.28 517.29 441.93 511.31 448.78 506.73 455.61 502.75 461.67 499.2 466.92 495.3 474.53 486.38 486.71 480.07 491.7 475.45 495.31 469.75 498.67 463.02 501.82 456.14 505.61 448.28 509.35 439.59 512.99 430.83 517.33 421.33 521.56 411.2 525.52 401.07 529.98 390.82 533.7 380.59 536.57 370.36 539.51 360.12 541.32 350 541.92 339.87 542.27 329.86 541.27 320.13 538.97 310.48 536.28 301.23 532.3 292.6 527.15 284.29 521.66 276.83 515.1 270.48 507.67 264.75 500.01 260.34 491.61 257.45 482.64 255.25 473.57 254.54 464.03 255.3 454.2 256.4 444.34 258.59 434.24 261.71 424.01 264.42 413.78 267.46 403.91 270.62 394.46 272.95 384.97 275.36 375.86 277.88 367.16 279.72 358.36 281.93 349.91 284.63 341.83 287.08 333.59 290.3 325.65 294.35 318.06 298.49 310.26 303.58 302.76 309.57 295.65 315.75 288.34 322.79 281.42 330.53 275.04 338.41 268.55 346.89 262.68 355.8 257.61 364.75 252.62 374.04 248.57 383.53 245.69" stroke-dasharray="2 10" transform="rotate(52.52, 400, 400)" opacity="0.55"></path><path d="M384.08 256.45C392.85 254.03 401.55 252.89 410.12 252.98 418.75 253.45 427.35 255.15 435.92 257.98 444.69 261.18 453.57 265.46 462.54 270.67 471.81 276.18 481.24 282.53 490.68 289.56 500.3 296.8 509.73 304.63 518.66 312.89 527.23 321.27 534.8 330.02 540.89 338.96 545.91 347.97 548.96 357.14 549.74 366.32 549.13 375.53 546.27 384.72 541.31 393.74 535.64 402.77 528.91 411.19 521.72 418.94 515.08 426.68 508.62 433.75 502.61 440.12 497.71 446.48 493.27 452.18 489.21 457.19 484.46 464.52 474.72 476.64 468.63 481.78 464.37 485.46 459.23 488.91 453.2 492.14 447.09 495.91 440.1 499.58 432.31 503.1 424.47 507.2 415.88 511.14 406.62 514.76 397.37 518.8 387.92 522.15 378.43 524.72 368.96 527.36 359.45 529 350.04 529.58 340.68 529.98 331.46 529.2 322.55 527.28 313.79 525.05 305.47 521.68 297.79 517.25 290.47 512.55 283.99 506.86 278.57 500.35 273.72 493.64 270.08 486.21 267.8 478.2 266.1 470.1 265.71 461.51 266.62 452.57 267.77 443.61 269.91 434.34 272.9 424.89 275.51 415.44 278.47 406.24 281.58 397.37 283.97 388.47 286.47 379.87 289.07 371.6 291.04 363.25 293.32 355.19 295.98 347.45 298.32 339.58 301.3 331.97 304.96 324.7 308.59 317.26 313.03 310.1 318.26 303.33 323.58 296.41 329.7 289.88 336.49 283.87 343.37 277.79 350.87 272.3 358.85 267.57 366.86 262.93 375.31 259.16 384.08 256.45" stroke-dasharray="2 2" transform="rotate(56.56, 400, 400)" opacity="0.68"></path><path d="M386.38 267.22C394.47 264.94 402.62 263.81 410.76 263.79 418.96 264.09 427.23 265.49 435.54 267.9 443.99 270.63 452.56 274.34 461.19 278.88 470 283.69 478.86 289.28 487.6 295.5 496.36 301.9 504.8 308.87 512.61 316.25 520 323.75 526.38 331.6 531.36 339.66 535.41 347.78 537.73 356.07 538.07 364.39 537.3 372.73 534.62 381.07 530.12 389.29 525.04 397.51 518.99 405.2 512.43 412.3 506.25 419.4 500.08 425.93 494.17 431.84 489.12 437.77 484.39 443.14 479.95 447.92 474.48 454.97 463.78 466.98 457.71 472.19 453.61 475.89 448.81 479.36 443.3 482.61 437.77 486.31 431.48 489.87 424.47 493.24 417.43 497.07 409.69 500.7 401.31 503.99 392.93 507.64 384.35 510.62 375.69 512.89 367.07 515.25 358.41 516.71 349.86 517.25 341.39 517.66 333.09 517.05 325.13 515.44 317.35 513.61 310.04 510.75 303.38 506.96 297.07 502.96 291.56 498.06 287.05 492.39 283.03 486.56 280.1 480.04 278.37 472.94 277.11 465.77 276.99 458.1 278.01 450.04 279.19 441.96 281.25 433.54 284.08 424.88 286.59 416.21 289.44 407.71 292.48 399.46 294.9 391.19 297.46 383.13 300.13 375.34 302.23 367.49 304.59 359.87 307.25 352.53 309.58 345.09 312.41 337.88 315.8 330.97 319.07 323.95 323.03 317.2 327.66 310.82 332.31 304.33 337.66 298.22 343.64 292.61 349.67 286.97 356.31 281.89 363.46 277.51 370.63 273.23 378.3 269.74 386.38 267.22" stroke-dasharray="11 3" transform="rotate(60.599999999999994, 400, 400)" opacity="0.63"></path><path d="M390.18 277.98C397.6 275.85 405.17 274.76 412.81 274.64 420.49 274.79 428.29 275.92 436.16 277.95 444.11 280.24 452.17 283.39 460.22 287.31 468.34 291.45 476.42 296.3 484.27 301.73 492.03 307.33 499.37 313.44 506.03 319.96 512.26 326.57 517.5 333.53 521.48 340.71 524.66 347.94 526.34 355.35 526.34 362.81 525.47 370.29 522.97 377.81 518.94 385.23 514.43 392.66 509.03 399.64 503.11 406.12 497.45 412.6 491.66 418.6 485.97 424.09 480.92 429.6 476.06 434.64 471.41 439.2 465.39 445.95 453.83 457.73 447.66 462.94 443.58 466.59 439 470.03 433.86 473.24 428.75 476.81 423.02 480.22 416.68 483.39 410.34 486.95 403.38 490.26 395.86 493.23 388.34 496.48 380.64 499.12 372.89 501.11 365.17 503.18 357.45 504.47 349.86 504.94 342.36 505.34 335.07 504.86 328.14 503.5 321.4 501.98 315.13 499.58 309.5 496.35 304.18 492.95 299.62 488.76 295.96 483.85 292.7 478.83 290.41 473.15 289.17 466.92 288.28 460.62 288.38 453.83 289.46 446.63 290.65 439.42 292.61 431.83 295.26 423.97 297.65 416.1 300.37 408.32 303.31 400.72 305.73 393.1 308.32 385.63 311.03 378.37 313.24 371.08 315.68 363.95 318.37 357.07 320.73 350.12 323.49 343.37 326.7 336.9 329.75 330.34 333.36 324.05 337.53 318.11 341.67 312.1 346.41 306.45 351.74 301.28 357.06 296.1 362.96 291.44 369.39 287.43 375.82 283.51 382.76 280.31 390.18 277.98" stroke-dasharray="8 5" transform="rotate(64.64, 400, 400)" opacity="0.10"></path><path d="M395.06 288.74C401.82 286.78 408.75 285.73 415.8 285.54 422.86 285.56 430.06 286.44 437.31 288.12 444.6 290 451.94 292.65 459.21 295.98 466.48 299.49 473.62 303.63 480.45 308.31 487.12 313.12 493.33 318.41 498.85 324.08 503.96 329.83 508.16 335.92 511.23 342.22 513.66 348.57 514.81 355.11 514.55 361.73 513.62 368.36 511.34 375.05 507.75 381.69 503.79 388.34 499.03 394.62 493.77 400.5 488.65 406.38 483.32 411.87 477.97 416.93 473.07 422.03 468.24 426.74 463.52 431.06 457.2 437.48 445.01 448.89 438.73 454.01 434.65 457.56 430.19 460.9 425.34 464.01 420.54 467.4 415.27 470.61 409.52 473.57 403.78 476.82 397.55 479.82 390.86 482.47 384.17 485.34 377.36 487.65 370.55 489.36 363.77 491.16 357.03 492.26 350.46 492.66 340.85 492.83 323.53 489.21 316.28 485.45 310.06 480.8 301.9 468.06 300.2 460.18 299.62 454.71 299.88 448.75 300.98 442.39 302.14 436.02 303.98 429.26 306.45 422.2 308.68 415.14 311.26 408.11 314.06 401.18 316.45 394.26 319.02 387.42 321.73 380.75 324.02 374.05 326.52 367.48 329.24 361.12 331.65 354.71 334.39 348.48 337.49 342.51 340.41 336.48 343.78 330.69 347.62 325.23 351.38 319.74 355.66 314.59 360.44 309.88 365.2 305.17 370.48 300.95 376.26 297.32 382.03 293.77 388.31 290.87 395.06 288.74" stroke-dasharray="3 3" transform="rotate(68.68, 400, 400)" opacity="0.57"></path><path d="M400.49 299.5C412.65 296.09 425.53 295.86 438.47 298.41 451.44 301.61 464.29 307.44 475.93 315.25 486.87 323.49 495.58 333.41 500.65 344.29 503.73 355.31 502.46 367.04 496.57 378.81 489.53 390.58 480.18 401.22 470.11 410.47 461.23 419.84 452.27 428.08 443.47 435.07 435.77 442.56 427.39 449.23 418.13 454.9 409.11 461.46 398.64 467.25 386.87 471.7 375.09 476.87 363.2 479.81 352.02 480.44 341.13 481.03 331.42 478.93 323.8 474.34 316.96 469.45 312.66 462.12 311.45 452.82 310.89 443.36 313 432.15 317.63 419.64 321.51 407.13 326.57 394.56 332.22 382.49 336.53 370.37 341.77 358.63 347.98 347.82 353.49 336.89 360.61 326.86 369.33 318.41 377.89 310.04 388.32 303.47 400.49 299.5" stroke-dasharray="6 1" transform="rotate(72.72, 400, 400)" opacity="0.26"></path><path d="M405.86 310.27C416.63 307.18 427.94 306.83 439.14 308.84 450.29 311.34 461.07 316.1 470.55 322.59 479.37 329.41 486.11 337.74 489.74 346.98 491.9 356.34 490.52 366.43 485.38 376.69 479.39 386.95 471.29 396.39 462.35 404.76 454.14 413.23 445.59 420.83 437.06 427.4 429.35 434.37 421.16 440.62 412.46 445.93 404 451.88 394.56 457.06 384.32 460.94 374.08 465.37 364.03 467.81 354.82 468.28 345.83 468.76 338.03 466.97 332.11 463.09 326.75 459.01 323.55 452.85 322.9 444.93 322.66 436.9 324.65 427.26 328.82 416.37 332.38 405.48 337.11 394.41 342.47 383.7 346.82 372.96 352.01 362.52 358 352.89 363.38 343.21 370.05 334.34 377.99 326.89 385.75 319.54 395.08 313.78 405.86 310.27" stroke-dasharray="11 9" transform="rotate(76.76, 400, 400)" opacity="0.66"></path><path d="M410.58 321.03C419.92 318.31 429.54 317.86 438.87 319.4 448.11 321.29 456.81 325.07 464.21 330.34 471.07 335.85 476.09 342.68 478.54 350.36 479.96 358.13 478.58 366.62 474.2 375.4 469.2 384.18 462.37 392.4 454.64 399.83 447.32 407.34 439.49 414.2 431.57 420.23 424.19 426.54 416.45 432.23 408.45 437.06 400.64 442.34 392.26 446.86 383.5 450.18 374.74 453.89 366.43 455.88 359.03 456.18 348.72 455.78 335.94 445.82 334.55 436.63 334.53 429.93 336.34 421.8 340 412.52 343.2 403.23 347.51 393.71 352.48 384.43 356.71 375.16 361.73 366.1 367.41 357.74 372.6 349.38 378.81 341.74 385.99 335.33 393 329.02 401.24 324.07 410.58 321.03" stroke-dasharray="10 7" transform="rotate(80.80000000000001, 400, 400)" opacity="0.56"></path><path d="M414.14 331.79C421.98 329.46 429.85 328.97 437.29 330.1 444.64 331.46 451.35 334.38 456.87 338.52 461.97 342.83 465.54 348.26 467.08 354.47 467.94 360.74 466.64 367.69 463.02 375 458.97 382.3 453.38 389.28 446.94 395.69 440.69 402.16 433.85 408.16 426.83 413.51 420.13 419.05 413.13 424.06 406.03 428.29 399.07 432.83 391.81 436.66 384.49 439.42 373.82 443.22 356.66 443.75 351.07 440.4 347.17 435.56 347.27 419.24 351.18 408.21 353.98 400.52 357.79 392.58 362.23 384.81 366.18 377.05 370.86 369.46 376.07 362.45 380.95 355.46 386.61 349.07 392.96 343.73 399.18 338.48 406.29 334.35 414.14 331.79" stroke-dasharray="8 2" transform="rotate(84.84, 400, 400)" opacity="0.84"></path><path d="M416.14 342.55C428.75 338.88 440.51 340.96 448.52 347.13 455.49 353.67 457.22 363.78 451.83 375.49 445.39 387.19 434.5 398.31 422.66 407.23 411.43 416.62 398.98 424.46 387.19 428.65 375.4 433.52 366.33 433.45 361.58 429.1 357.12 424.71 357.13 415.83 362.37 403.61 366.75 391.39 374.58 378.3 383.92 367.05 392.42 355.92 403.52 346.82 416.14 342.55" stroke-dasharray="1 8" transform="rotate(88.88, 400, 400)" opacity="0.08"></path><path d="M416.36 353.32C429.94 351.11 444.3 364.39 440.65 376.86 435.99 385.65 427.87 394.28 418.82 401.34 410 408.65 400.23 414.72 391.3 417.89 379.11 421.34 369.5 411.28 373.55 398.89 377.05 389.79 383.37 380 390.91 371.61 398.01 363.31 406.9 356.53 416.36 353.32" stroke-dasharray="11 5" transform="rotate(92.92, 400, 400)" opacity="0.61"></path><path d="M414.79 364.08C427.36 360.27 434.61 367.28 429.47 379.06 423.33 390.83 408.42 403.06 396.37 407.13 384.31 411.85 379.2 406.24 384.73 394.2 389.37 382.14 402.2 368.5 414.79 364.08" stroke-dasharray="2 4" transform="rotate(96.96, 400, 400)" opacity="0.79"></path></g></svg>