<svg xmlns="http://www.w3.org/2000/svg" version="1.1" xmlns:xlink="http://www.w3.org/1999/xlink" xmlns:svgjs="http://svgjs.dev/svgjs" viewBox="0 0 800 800"><defs><linearGradient x1="50%" y1="0%" x2="50%" y2="100%" id="uundulate-grad"><stop stop-color="hsl(1.4, 100%, 67%)" stop-opacity="1" offset="45%"></stop><stop stop-color="hsl(167, 52%, 78%)" stop-opacity="1" offset="100%"></stop></linearGradient></defs><g stroke-width="2" stroke="url(#uundulate-grad)" fill="none"><path d="M676.5596098064843 359.8110649411168C700.2299223609149 591.6564269553392 793.2051855675902 879.957392914029 701.0979802412543 951.3324699574537C608.9907749149183 1022.7075470008783 367.65503673042076 805.9423182332921 234.44502424007283 702.4114347495561C101.23501174972495 598.8805512658205 72.87463081637958 563.9359411366577 61.68992028758424 454.3842292355216C50.505209758788965 344.83251733438556 71.21871376593805 304.8776961545899 180.75841370185537 176.56321762410323C290.29811363777264 48.248739093616564 484.1885641248555 -199.7019025685256 587.4804799799867 -161.52526771081466C690.7723958351178 -123.34863285310377 652.8892972520537 127.96570292689432 676.5596098064843 359.8110649411168C700.2299223609149 591.6564269553392 793.2051855675902 879.957392914029 701.0979802412543 951.3324699574537 "></path><path d="M667.6383379774192 361.1076072247073C690.5450920623521 585.4740865933095 780.5211532301023 864.4750213920418 691.3851480755837 933.5476765953558C602.2491429210652 1002.6203317986699 368.6984285489707 792.847529765522 239.78551323573083 692.6563522006163C110.87259792249091 592.4651746357108 83.42706798699533 558.6478099945857 72.60315457203217 452.63002428380867C61.77924115706895 346.61223857303185 81.82456761560036 307.94628259258445 187.83072884390742 183.77098078888775C293.8368900722145 59.59567898519094 481.47280989842363 -180.3565548813982 581.4327284679055 -143.4114243739361C681.3926470373873 -106.4662938664739 644.7315838924864 136.74112785610487 667.6383379774192 361.1076072247073C690.5450920623521 585.4740865933095 780.5211532301023 864.4750213920418 691.3851480755837 933.5476765953558 "></path><path d="M658.7170661483542 362.4039969204073C680.8602617637894 579.2915936433897 767.8371208926146 848.9924972821639 681.6723159099133 915.7627306453676C595.5075109272119 982.5329640085713 369.74182036752063 779.7525887098616 245.12600223138872 682.9011170637859C120.51018409525682 586.0496454177107 93.97950515761113 553.3595262646231 83.51638885648003 450.8756667442053C73.05327255534894 348.39180722378774 92.43042146526261 311.0147164426885 194.9030439859594 190.97859136578165C297.3756665066562 70.94246628887481 478.7570556719918 -161.01135978216155 575.3849769558242 -125.29773362494808C672.0128982396566 -89.58410746773467 636.5738705329192 145.5164001974249 658.7170661483542 362.4039969204073C680.8602617637894 579.2915936433897 767.8371208926146 848.9924972821639 681.6723159099133 915.7627306453676 "></path><path d="M649.7957943192891 363.7003255809508C671.1754314652266 573.1090396583131 755.1530885551269 833.5099121371295 671.9594837442428 897.9777236602229C588.7658789333587 962.445535183316 370.78521218607057 766.6575866190447 250.46649122704662 673.1458208917993C130.14777026802273 579.634055164554 104.53194232822688 548.0711814995038 94.4296231409279 449.1212481694455C84.32730395362893 350.17131483938704 103.03627531492492 314.0830892576362 201.97535912801152 198.1861409075192C300.91444294109806 82.2891925574022 476.04130144556007 -141.66622571808108 569.337225443743 -107.18410391111638C662.6331494419261 -72.70198210415168 628.4161571733518 154.29161150358857 649.7957943192891 363.7003255809508C671.1754314652266 573.1090396583131 755.1530885551269 833.5099121371295 671.9594837442428 897.9777236602229 "></path><path d="M640.8744919726461 364.99683734696316C661.4905706490857 566.9266687787052 742.4690257000609 818.0275100975641 662.2466210609941 880.1928997805469C582.0242164219273 942.3582894635297 371.8285734870424 753.5627676336965 255.8069497051265 663.3907078252814C139.78532592321056 573.2186480168664 115.08434898126455 542.7830198398536 105.3428269077977 447.3670127001544C95.60130483433079 351.9510055604553 113.64209864700905 317.1516451780526 209.04764375248544 205.3938735547256C304.4531888579618 93.63610193139846 473.32551670155 -122.32090854853186 563.2894434140837 -89.07029109181588C653.2533701266173 -55.819673635099946 620.2584132962065 163.067005915221 640.8744919726461 364.99683734696316C661.4905706490857 566.9266687787052 742.4690257000609 818.0275100975641 662.2466210609941 880.1928997805469 "></path><path d="M631.953220143581 366.29316600750667C651.8057403505228 560.7441147936288 729.7849933625731 802.54492495253 652.5337888953236 862.4078927954022C575.2825844280742 922.2708606382744 372.8719653055923 740.4677655428795 261.1474387007844 653.6354116532948C149.42291209597647 566.8030577637097 125.63678615188036 537.4946750747346 116.25606119224557 445.6125941253946C106.87533623261083 353.7305131760547 124.24795249667136 320.2200179930003 216.11995889453743 212.60142309646312C307.9919652924036 104.98282819992596 470.60976247511826 -102.97577448445139 557.2416919020025 -70.95666137798418C643.8736213288867 -38.93754827151696 612.1006999366393 171.84221722138466 631.953220143581 366.29316600750667C651.8057403505228 560.7441147936288 729.7849933625731 802.54492495253 652.5337888953236 862.4078927954022 "></path><path d="M623.0319483145161 367.5896472559409C642.1209100519601 554.561713396443 717.1009610250853 787.0624923953865 642.8209567296532 844.6230383981483C568.540952434221 902.1835844009099 373.91535712414225 727.3729160399532 266.4879276964424 643.8802680691988C159.06049826874244 560.3876200984439 136.1892233224961 532.2064828975061 127.16929547669343 443.8583281385255C118.14936763089082 355.51017337954477 134.8538063463336 323.2885433958386 223.19227403658948 219.80912522609128C311.53074172684535 116.32970705634398 467.8940082486863 -83.6304878324803 551.1939403899212 -52.84287907626185C634.4938725311561 -22.05527032004335 603.942986577072 180.61758111543895 623.0319483145161 367.5896472559409C642.1209100519601 554.561713396443 717.1009610250853 787.0624923953865 642.8209567296532 844.6230383981483 "></path><path d="M614.110676485451 368.8860369516409C632.4360797533973 548.3792204465228 704.4169286875975 771.5799682855086 633.1081245639826 826.8380924481598C561.7993204403678 882.0962166108111 374.9587489426922 714.2779749842928 271.8284166921003 634.1250329323682C168.69808444150834 553.9720908804437 146.7416604931119 526.9181991675435 138.08252976114136 442.10397059892205C129.4233990291708 357.28974203030054 145.45966019599587 326.35697724594263 230.26458917864153 227.0167358029853C315.0695181612872 127.67649436002779 465.1782540222546 -64.28529273324358 545.1461888778399 -34.729188327273846C625.1141237334255 -5.173083921304112 595.7852732175047 189.39285345675898 614.110676485451 368.8860369516409C632.4360797533973 548.3792204465228 704.4169286875975 771.5799682855086 633.1081245639826 826.8380924481598 "></path><path d="M605.1894199151751 370.18242664734066C622.7512647136236 542.1967274966025 691.7329116088988 756.0974441756305 623.3953076571013 809.0531464981714C555.0577037053037 862.008848820712 376.0021560200312 701.1830339286321 277.16892094654725 624.3697977955378C178.3356858730633 547.5565616624434 157.29411292251672 521.6299154375807 148.9957793043783 440.3496130593185C140.69744568623986 359.0693106810563 156.06552930444724 329.42541109604656 237.33691957948264 234.22434637987908C318.6083098545181 139.02328166371154 462.4625150546118 -44.94009763400686 539.0984526245478 -16.615497578285897C615.7343901944839 11.709102477435124 587.6275751167266 198.1681257980789 605.1894199151751 370.18242664734066C622.7512647136236 542.1967274966025 691.7329116088988 756.0974441756305 623.3953076571013 809.0531464981714 "></path><path d="M596.2681328273211 371.47884686061866C613.0664191562719 536.0142650642605 679.0488640126221 740.6149505833305 613.6824602326417 791.268231065761C548.3160564526613 841.9215115481916 377.04553257979205 688.0881233905498 282.50939468341613 614.6145931762854C187.9732567870402 541.1410629620214 167.84653483434346 516.3416622251962 159.9089983300371 438.59528603729314C151.97146182573078 360.8489098493901 166.67136789532043 332.4938754637287 244.40921946274563 241.431987474351C322.14707103017076 150.37009948497337 459.7467455693909 -25.594872017192074 533.0506858536776 1.498223688280234C606.3546261379643 28.591319393752485 579.4698464983703 206.94342865697695 596.2681328273211 371.47884686061866C613.0664191562719 536.0142650642605 679.0488640126221 740.6149505833305 613.6824602326417 791.268231065761 "></path><path d="M587.3468304806779 372.7752975914748C603.3815583401308 529.8318331494966 666.364801157556 725.1324875086088 603.969597549393 773.4833461509288C541.57439394123 821.8342047932488 378.08889388076386 674.9932433700452 287.84985316149596 604.8594190746112C197.610812442228 534.7255947791773 178.39894148738114 511.0534395303896 170.8222020969069 436.8409895328458C163.24546270643265 362.628539535302 177.27719122740461 335.5623703489889 251.48150408721955 248.63965908640114C325.6858169470345 161.71694782381337 457.03096082538093 -6.249615882799105 527.0029038240182 19.611975472424433C596.9748468226555 45.47356682764797 571.3121026212248 215.71876203345312 587.3468304806779 372.7752975914748C603.3815583401308 529.8318331494966 666.364801157556 725.1324875086088 603.969597549393 773.4833461509288 "></path><path d="M578.4255586516128 374.07165676959653C593.6967280415681 523.6493096819981 653.6807688200684 709.6499328811528 594.2567653837225 755.6983696833622C534.8327619473769 801.7468064855716 379.1322856993138 661.8982717968064 293.19034215715385 595.1041534202027C207.2483986149939 528.3100350435989 188.95137865799688 505.76512528284877 181.73543638135476 435.0866014756641C174.51949410471263 364.40807766847956 187.88304507706687 338.6307736815147 258.5538192292716 255.8472391457168C329.2245933814763 173.063704609919 454.3152065989491 13.095548698859488 520.9551523119369 37.725635703834314C587.5950980249248 62.35572270880908 563.1543892616576 224.4940038571949 578.4255586516128 374.07165676959653C593.6967280415681 523.6493096819981 653.6807688200684 709.6499328811528 594.2567653837225 755.6983696833622 "></path><path d="M569.5042868225478 375.3680769828745C584.0118977430053 517.466847249656 640.9967364825804 694.167439288853 584.543933218052 737.9134542509519C528.0911299535236 781.6594692130509 380.17567751786373 648.803361258724 298.5308311528118 585.3489488009503C216.88598478775987 521.8945363431767 199.5038158286127 500.4768720704641 192.64867066580268 433.3322744536388C185.79352550299262 366.18767683681347 198.48889892672918 341.69923804919677 265.62613437132364 263.0548802401888C332.7633698159181 184.41052243118088 451.59945237251725 32.44077431567433 514.9074007998557 55.83935697040039C578.2153492271942 79.23793962512644 554.9966759020904 233.26930671609307 569.5042868225478 375.3680769828745C584.0118977430053 517.466847249656 640.9967364825804 694.167439288853 584.543933218052 737.9134542509519 "></path><path d="M560.5829997346938 376.66452771373065C574.3270521856534 511.28441533489206 628.3126888863036 678.6849762141312 574.8310857935924 720.1285693361198C521.3494827008813 761.5721624581083 381.2190540776246 635.7084812382195 303.8713048896807 575.5937746992761C226.5235557017367 515.4790681603328 210.05623774043937 495.18864937565763 203.5618896914615 431.57797794919156C197.06754164248355 367.9673065227254 209.09473751760237 344.76773293445694 272.69843425458663 270.26255185223886C336.30213099157083 195.75737077002083 448.88368288729635 51.7860304500673 508.8596340289855 73.95310875454459C568.8355851706744 96.12018705902193 546.838947283734 242.04464009256913 560.5829997346938 376.66452771373065C574.3270521856534 511.28441533489206 628.3126888863036 678.6849762141312 574.8310857935924 720.1285693361198 "></path><path d="M551.6617431644179 377.96094792700865C564.6422371458798 505.10195290255 615.6286718076049 663.2024826218315 565.118268886711 702.3436539037095C514.6078659658172 741.4848251855875 382.2624611549636 622.613570700137 309.21180914412764 565.8385700800238C236.16115713329174 509.0635694599107 220.60869016984424 489.90039616327294 214.47513923469842 429.8236509271661C208.3415882995526 369.74690569105917 219.70060662605374 347.836197302139 279.77076465542774 277.4701929467109C339.84092268480174 207.1041885912827 446.16794391965357 71.13125606688214 502.8118977756933 92.06683002111072C559.4558516317329 113.00240397533929 538.6812491829558 250.81994295146728 551.6617431644179 377.96094792700865C564.6422371458798 505.10195290255 615.6286718076049 663.2024826218315 565.118268886711 702.3436539037095 "></path><path d="M542.7404560765638 379.2573376227085C554.9573915885279 498.9194599526297 602.9446242113281 647.7199585119535 555.4054214622515 684.5587079537211C507.86621871317493 721.3974573954886 383.3058377147245 609.5186296444763 314.55228288099653 556.0833349431934C245.79872804726858 502.6480402419104 231.16111208167098 484.61211243331024 225.38835826035728 428.06929338756254C219.61560443904352 371.52647434181495 230.30644521692693 350.9046311522429 286.8430645386907 284.67780352360467C343.37968386045446 218.4509758949664 443.45217443443266 90.47645116611886 496.76413100482296 110.18052077009867C550.0760875752133 129.88459037407853 530.5235205645995 259.5952152927872 542.7404560765638 379.2573376227085C554.9573915885279 498.9194599526297 602.9446242113281 647.7199585119535 555.4054214622515 684.5587079537211 "></path><path d="M533.8191537299206 380.55381887114277C545.272530772387 492.7370585554438 590.2605613562621 632.2375259548099 545.6925587790029 666.773853556467C501.12455620174353 701.310181158124 384.3491990156963 596.4237801415501 319.89274135907635 546.3281913590972C255.43628370245636 496.23260257664447 241.7135187347086 479.3239202560819 236.30156202722702 426.31502740069345C230.88960531974544 373.306134545305 240.91226854901112 353.97315655508123 293.91534916316465 291.88550565323294C346.9184297773182 229.79785475138453 440.7363896904228 109.82173781808996 490.71634897516367 128.29430307182105C540.6963082599045 146.76686832555208 522.3657766874542 268.3705791868415 533.8191537299206 380.55381887114277C545.272530772387 492.7370585554438 590.2605613562621 632.2375259548099 545.6925587790029 666.773853556467 "></path><path d="M524.8978819008555 381.85020856684264C535.5877004738243 486.55456560552375 577.5765290187744 616.7550018449319 535.9797266133323 648.9889076064786C494.38292420789026 681.2228133680252 385.3925908342462 583.3288390858895 325.23323035473425 536.5729562222668C265.07386987522233 489.81707335864417 252.2659559053244 474.0356365261191 247.2147963116749 424.56066986109C242.16363671802543 375.08570319606065 251.51812239867337 357.0415904051853 300.9876643052167 299.0931162301268C350.45720621175997 241.1446420550683 438.02063546399097 129.16693291732668 484.6685974630825 146.407993820809C531.3165594621739 163.64905472429132 514.2080633278869 277.1458515281615 524.8978819008555 381.85020856684264C535.5877004738243 486.55456560552375 577.5765290187744 616.7550018449319 535.9797266133323 648.9889076064786 "></path><path d="M515.9766405893686 383.1465524861752C525.9029006928395 480.3720268792363 564.8925271988646 601.2724319586869 526.2669249652399 631.203915880123C487.6413227316152 661.1353998015591 386.4360131703743 570.2338522538616 330.5737498679703 526.8176753090693C274.71148656556636 483.4014983642767 262.8184235935183 468.7473070197891 258.12806111370094 422.8062665451191C253.43769863388354 376.86522607044924 262.1240067659138 360.109978478922 308.06000996484687 306.30068103065344C353.99601316377993 252.49138358238486 435.30491175513725 148.51208224019615 478.62087646857935 164.52163879342982C521.9368411820215 180.53119534666337 506.0503804858978 285.9210780931142 515.9766405893686 383.1465524861752C525.9029006928395 480.3720268792363 564.8925271988646 601.2724319586869 526.2669249652399 631.203915880123 "></path><path d="M507.05532298393643 384.4430184758205C516.2180246179096 474.1896102232614 552.2084490850098 585.7899841427543 516.5540470232022 613.4190462240799C480.89964496139487 641.0481083054055 387.47935921255703 557.1389874921464 335.9141930872611 517.0625164661841C284.3490269619651 476.9860454402219 273.3708149877669 463.45909958377183 269.0412496217816 421.05198529946097C264.71168425579634 378.64487101515033 272.72981483920887 363.1784886229714 315.13227933053173 313.50836790149265C357.53474382185453 263.8382471800139 432.5891117523382 167.85735363337818 472.5730791801309 182.63540583636308C512.5570466079237 197.41345803934792 497.8926213499633 294.6964267283795 507.05532298393643 384.4430184758205C516.2180246179096 474.1896102232614 552.2084490850098 585.7899841427543 516.5540470232022 613.4190462240799 "></path><path d="M498.1340511548715 385.7394386890984C506.5331943193469 468.00714779091936 539.524416747522 570.3074905504543 506.8412148575318 595.6341307916696C474.1580129675416 620.9607710328848 388.52275103110696 544.0440769540639 341.25468208291903 507.3073118469317C293.98661313473104 470.57054673979974 283.9232521583827 458.17084637138714 279.9544839062295 419.29765827743563C275.98571565407633 380.4244701834841 283.3356686888712 366.2469529906534 322.2045944725838 320.71600899596456C361.0735202562963 275.18506500127575 429.8733575259064 187.20257925019303 466.5253276680497 200.74912710292915C503.17729781019307 214.29567495566528 489.7349079903961 303.47172958727754 498.1340511548715 385.7394386890984C506.5331943193469 468.00714779091936 539.524416747522 570.3074905504543 506.8412148575318 595.6341307916696 "></path><path d="M489.2127793258064 387.0358589023764C496.84836402078406 461.8246853585772 526.8403844100342 554.8249969581545 497.12838269186125 577.8492153592592C467.41638097368843 600.8734337603639 389.5661428496569 530.9491664159814 346.5951710785769 497.55210722767947C303.62419930749695 464.15504803937756 294.47568932899844 452.88259315900245 290.8677181906774 417.5433312554102C287.2597470523563 382.2040693518179 293.94152253853343 369.3154173583355 329.27690961463577 327.9236500904365C364.61229669073816 286.5318828225376 427.15760329947454 206.54780486700787 460.47757615596845 218.86284836949528C493.79754901246247 231.17789187198264 481.5771946308288 312.2470324461756 489.2127793258064 387.0358589023764C496.84836402078406 461.8246853585772 526.8403844100342 554.8249969581545 497.12838269186125 577.8492153592592 "></path><path d="M480.29150749674136 388.3322791156544C487.16353372222125 455.64222292623504 514.1563520725463 539.3425033658547 487.4155505261907 560.0642999268489C460.67474897983516 580.7860964878432 390.60953466820683 517.8542558778988 351.9356600742349 487.7969026084271C313.2617854802629 457.7395493389554 305.02812649961425 447.5943399466179 301.7809524751253 415.78900423338484C298.5337784506363 383.98366852015175 304.54737638819574 372.38388172601753 336.3492247566878 335.1312911849085C368.15107312517995 297.87870064379945 424.4418490730427 225.8930304838227 454.4298246438873 236.97656963606136C484.41780021473176 248.0601087883 473.4194812712615 321.0223353050736 480.29150749674136 388.3322791156544C487.16353372222125 455.64222292623504 514.1563520725463 539.3425033658547 487.4155505261907 560.0642999268489 "></path><path d="M471.3702356676764 389.6286840701433C477.47870342365854 449.4597452351039 501.4723197350586 523.8599945147657 477.7027183605203 542.2793692356496C453.933116985982 560.6987439565333 391.65292648675677 504.7593300810272 357.2761490698928 478.0416827303858C322.8993716530288 451.32403537974426 315.58056367023 442.30607147544424 312.69418675957314 414.03466195257033C309.8078098489163 385.76325242969654 315.153230237858 375.4523308349105 343.42153989873987 342.3389170205914C371.6898495596218 309.22550320627226 421.72609484661086 245.2382408418485 448.382073131806 255.09027564383842C475.03805141700116 264.9423104458283 465.2617679116943 329.79762290518266 471.3702356676764 389.6286840701433C477.47870342365854 449.4597452351039 501.4723197350586 523.8599945147657 477.7027183605203 542.2793692356496 "></path><path d="M462.4489485798223 390.92505850705413C467.79385786630667 443.2772370263947 488.78827213878174 508.3774551460988 467.9898709360607 524.4944080268722C447.19146973333966 540.6113609076453 392.69630304651764 491.66437376657757 362.61662280676165 468.28643233476623C332.53694256700567 444.9084909029549 326.13298558205673 437.01777248669237 323.607405785232 412.2802891541778C321.0818259884072 387.54280582166314 325.75906882873124 378.52074942622545 350.49383978200285 349.5465123386962C375.2286107352745 320.57227525116696 419.01032536139 264.58342068229615 442.3343063609358 273.2039511340373C465.6582873604815 281.82448158577847 457.10403929333796 338.5728799877136 462.4489485798223 390.92505850705413C467.79385786630667 443.2772370263947 488.78827213878174 508.3774551460988 467.9898709360607 524.4944080268722 "></path><path d="M453.5276614919682 392.22150923791025C458.1090123089548 437.0948051116307 476.1042245425049 492.89499207137715 458.2770235116011 506.70952311203996C440.44982248069743 520.5240541527028 393.7396796062785 478.56949374607325 367.95709654363054 458.53125823309205C342.17451348098257 438.49302272011096 336.6854074938834 431.7295497918859 334.5206248108908 410.5259926497305C332.35584212789814 389.32243550757516 336.36490741960444 381.5892443114857 357.56613966526584 356.7541839507463C378.7673719109273 331.91912359000696 416.2945558761691 283.9286768166891 436.28653959006544 291.3177029181815C456.27852330396183 298.70672901967396 448.94631067498165 347.34821336418975 453.5276614919682 392.22150923791025C458.1090123089548 437.0948051116307 476.1042245425049 492.89499207137715 458.2770235116011 506.70952311203996 "></path><path d="M444.6063896629032 393.5179294511882C448.42418201039203 430.9123426792886 463.4201922050171 477.41249847907727 448.5641913459306 488.9246076796296C433.7081904868442 500.43671688018196 394.78307142482845 465.4745832079907 373.2975855392885 448.77605361383974C351.8120996537485 432.0775240196888 347.2378446644992 426.4412965795012 345.4338590953387 408.7716656277051C343.6298735261782 391.10203467590895 346.97076126926675 384.65770867916774 364.6384548073179 363.9618250452183C382.3061483453691 343.2659414112688 413.5788016497373 303.27390243350396 430.2387880779842 309.43142418474764C446.89877450623123 315.5889459359913 440.7885973154144 356.1235162230878 444.6063896629032 393.5179294511882C448.42418201039203 430.9123426792886 463.4201922050171 477.41249847907727 448.5641913459306 488.9246076796296 "></path><path d="M435.6851178338382 394.8143496644662C438.7393517118293 424.7298802469465 450.7361598675293 461.9300048867774 438.85135918026015 471.13969224721933C426.966558492991 480.3493796076612 395.8264632433784 452.37967266990813 378.6380745349464 439.0208489945874C361.4496858265144 425.66202531926666 357.790281835115 421.15304336711665 356.3470933797866 407.0173386056797C354.9039049244582 392.8816338442428 357.576615118929 387.7261730468498 371.71076994936993 371.16946613969026C385.84492477981087 354.61275923253066 410.86304742330543 322.61912805031875 424.191036565903 327.5451454513137C437.5190257085006 332.4711628523087 432.63088395584714 364.89881908198583 435.6851178338382 394.8143496644662C438.7393517118293 424.7298802469465 450.7361598675293 461.9300048867774 438.85135918026015 471.13969224721933 "></path><path d="M426.7638460047732 396.1107546189551C429.05452141326646 418.5474025558153 438.0521275300415 446.4474960356886 429.1385270145896 453.35476155602C420.2249264991378 460.2620270763514 396.8698550619283 439.2847468730366 383.97856353060433 429.26562911654605C371.08727199928035 419.2465113600555 368.34271900573077 415.86477489594296 367.26032766423447 405.26299632486524C366.17793632273816 394.6612177537876 368.1824689685913 390.79462215574284 378.783085091422 378.37709197537316C389.3837012142527 365.9595617950035 408.1472931968736 341.96433840834453 418.1432850538218 345.6588514590908C428.13927691077 349.353364509837 424.4731705962799 373.6741066820949 426.7638460047732 396.1107546189551C429.05452141326646 418.5474025558153 438.0521275300415 446.4474960356886 429.1385270145896 453.35476155602 "></path><path d="M417.8425589169191 397.40717483223307C419.36967585591464 412.3649401234733 425.36807993376465 430.9650024433887 419.4256795901301 435.56984612360964C413.4832792464955 440.1746898038306 397.9132316216892 426.18983633495407 389.3190372674732 419.5104244972937C380.7248429132572 412.8310126596333 378.8951409175575 410.5765216835583 378.17354668989327 403.50866930283985C377.4519524622291 396.44081692212137 378.7883075594645 393.8630865234249 385.85538497468497 385.58473306984513C392.92246238990543 377.30637961626536 405.43152371165274 361.3095640251594 412.0955182829515 363.77257272565686C418.7595128542503 366.23558142615434 416.31544197792357 382.4494095409929 417.8425589169191 397.40717483223307C419.36967585591464 412.3649401234733 425.36807993376465 430.9650024433887 419.4256795901301 435.56984612360964 "></path><path d="M408.921271829065 398.703579786722C409.68483029856276 406.1824624323421 412.6840323374878 415.4824935922998 409.7128321656705 417.7849154324103C406.7416319938532 420.08733727252076 398.95660818145006 413.0949105380825 394.65951100434205 409.7552046192523C390.3624138272341 406.4154987004221 389.4475628293842 405.28825321238463 389.08676571555213 401.7543270220254C388.72596860172 398.22040083166615 389.39414615033775 396.93153563231795 392.92768485794795 392.79235890552803C396.4612235655582 388.6531821787381 402.71575422643184 380.65477438318516 406.0477515120812 381.8862787334339C409.3797487977306 383.11778308368264 408.15771335956725 391.22469714110196 408.921271829065 398.703579786722C409.68483029856276 406.1824624323421 412.6840323374878 415.4824935922998 409.7128321656705 417.7849154324103 "></path></g></svg>